<mxfile host="Electron" modified="2023-11-19T17:11:56.389Z" agent="Mozilla/5.0 (Macintosh; Intel Mac OS X 10_15_7) AppleWebKit/537.36 (KHTML, like Gecko) draw.io/22.1.2 Chrome/114.0.5735.289 Electron/25.9.4 Safari/537.36" etag="92kgiqEVLFj_yOlzbCHr" version="22.1.2" type="device">
  <diagram name="Page-1" id="AI9xFA448RENWGoOS4yr">
    <mxGraphModel dx="2390" dy="1512" grid="1" gridSize="10" guides="1" tooltips="1" connect="1" arrows="1" fold="1" page="1" pageScale="1" pageWidth="827" pageHeight="1169" math="0" shadow="0">
      <root>
        <mxCell id="0" />
        <mxCell id="1" parent="0" />
        <mxCell id="GOim5yvG8NWphUXoWWZ7-10" style="edgeStyle=orthogonalEdgeStyle;rounded=0;orthogonalLoop=1;jettySize=auto;html=1;exitX=1;exitY=0.25;exitDx=0;exitDy=0;entryX=0;entryY=0.25;entryDx=0;entryDy=0;" edge="1" parent="1">
          <mxGeometry relative="1" as="geometry">
            <mxPoint x="280" y="139.5" as="sourcePoint" />
            <mxPoint x="360" y="139.5" as="targetPoint" />
          </mxGeometry>
        </mxCell>
        <mxCell id="GOim5yvG8NWphUXoWWZ7-11" style="edgeStyle=orthogonalEdgeStyle;rounded=0;orthogonalLoop=1;jettySize=auto;html=1;exitX=1;exitY=0.25;exitDx=0;exitDy=0;entryX=0;entryY=0.25;entryDx=0;entryDy=0;" edge="1" parent="1">
          <mxGeometry relative="1" as="geometry">
            <mxPoint x="280" y="159.5" as="sourcePoint" />
            <mxPoint x="360" y="159.5" as="targetPoint" />
          </mxGeometry>
        </mxCell>
        <mxCell id="GOim5yvG8NWphUXoWWZ7-12" style="edgeStyle=orthogonalEdgeStyle;rounded=0;orthogonalLoop=1;jettySize=auto;html=1;exitX=1;exitY=0.5;exitDx=0;exitDy=0;entryX=0;entryY=0.5;entryDx=0;entryDy=0;" edge="1" parent="1">
          <mxGeometry relative="1" as="geometry">
            <mxPoint x="280" y="179" as="sourcePoint" />
            <mxPoint x="360" y="179" as="targetPoint" />
          </mxGeometry>
        </mxCell>
        <mxCell id="GOim5yvG8NWphUXoWWZ7-13" style="edgeStyle=orthogonalEdgeStyle;rounded=0;orthogonalLoop=1;jettySize=auto;html=1;exitX=1;exitY=0.5;exitDx=0;exitDy=0;entryX=0;entryY=0.5;entryDx=0;entryDy=0;" edge="1" parent="1">
          <mxGeometry relative="1" as="geometry">
            <mxPoint x="280" y="200" as="sourcePoint" />
            <mxPoint x="360" y="200" as="targetPoint" />
          </mxGeometry>
        </mxCell>
        <mxCell id="WoIh1A_TEwp8gWf-KlNA-189" value="" style="rounded=0;whiteSpace=wrap;html=1;fillColor=none;" parent="1" vertex="1">
          <mxGeometry x="200" y="130" width="80" height="150" as="geometry" />
        </mxCell>
        <mxCell id="GOim5yvG8NWphUXoWWZ7-2" value="spi_if" style="text;html=1;strokeColor=none;fillColor=none;align=center;verticalAlign=middle;whiteSpace=wrap;rounded=0;" vertex="1" parent="1">
          <mxGeometry x="230" y="255" width="60" height="30" as="geometry" />
        </mxCell>
        <mxCell id="GOim5yvG8NWphUXoWWZ7-14" style="edgeStyle=orthogonalEdgeStyle;rounded=0;orthogonalLoop=1;jettySize=auto;html=1;exitX=0;exitY=0.75;exitDx=0;exitDy=0;entryX=1;entryY=0.75;entryDx=0;entryDy=0;" edge="1" parent="1">
          <mxGeometry relative="1" as="geometry">
            <mxPoint x="360" y="259.5" as="sourcePoint" />
            <mxPoint x="280" y="259.5" as="targetPoint" />
          </mxGeometry>
        </mxCell>
        <mxCell id="GOim5yvG8NWphUXoWWZ7-15" style="edgeStyle=orthogonalEdgeStyle;rounded=0;orthogonalLoop=1;jettySize=auto;html=1;exitX=0;exitY=0.75;exitDx=0;exitDy=0;entryX=1;entryY=0.75;entryDx=0;entryDy=0;" edge="1" parent="1">
          <mxGeometry relative="1" as="geometry">
            <mxPoint x="360" y="239.5" as="sourcePoint" />
            <mxPoint x="280" y="239.5" as="targetPoint" />
          </mxGeometry>
        </mxCell>
        <mxCell id="GOim5yvG8NWphUXoWWZ7-16" style="edgeStyle=orthogonalEdgeStyle;rounded=0;orthogonalLoop=1;jettySize=auto;html=1;exitX=1;exitY=0.25;exitDx=0;exitDy=0;entryX=0;entryY=0.25;entryDx=0;entryDy=0;" edge="1" parent="1">
          <mxGeometry relative="1" as="geometry">
            <mxPoint x="440" y="139.5" as="sourcePoint" />
            <mxPoint x="520" y="139.5" as="targetPoint" />
          </mxGeometry>
        </mxCell>
        <mxCell id="GOim5yvG8NWphUXoWWZ7-17" style="edgeStyle=orthogonalEdgeStyle;rounded=0;orthogonalLoop=1;jettySize=auto;html=1;exitX=1;exitY=0.25;exitDx=0;exitDy=0;entryX=0;entryY=0.25;entryDx=0;entryDy=0;" edge="1" parent="1">
          <mxGeometry relative="1" as="geometry">
            <mxPoint x="440" y="160.5" as="sourcePoint" />
            <mxPoint x="520" y="160.5" as="targetPoint" />
          </mxGeometry>
        </mxCell>
        <mxCell id="GOim5yvG8NWphUXoWWZ7-18" style="edgeStyle=orthogonalEdgeStyle;rounded=0;orthogonalLoop=1;jettySize=auto;html=1;exitX=1;exitY=0.25;exitDx=0;exitDy=0;entryX=0;entryY=0.25;entryDx=0;entryDy=0;" edge="1" parent="1">
          <mxGeometry relative="1" as="geometry">
            <mxPoint x="440" y="179.5" as="sourcePoint" />
            <mxPoint x="520" y="179.5" as="targetPoint" />
          </mxGeometry>
        </mxCell>
        <mxCell id="GOim5yvG8NWphUXoWWZ7-19" style="edgeStyle=orthogonalEdgeStyle;rounded=0;orthogonalLoop=1;jettySize=auto;html=1;exitX=1;exitY=0.5;exitDx=0;exitDy=0;entryX=0;entryY=0.5;entryDx=0;entryDy=0;" edge="1" parent="1">
          <mxGeometry relative="1" as="geometry">
            <mxPoint x="440" y="200" as="sourcePoint" />
            <mxPoint x="520" y="200" as="targetPoint" />
          </mxGeometry>
        </mxCell>
        <mxCell id="GOim5yvG8NWphUXoWWZ7-4" value="" style="rounded=0;whiteSpace=wrap;html=1;fillColor=none;" vertex="1" parent="1">
          <mxGeometry x="360" y="130" width="80" height="150" as="geometry" />
        </mxCell>
        <mxCell id="GOim5yvG8NWphUXoWWZ7-5" value="pkt_ctrl" style="text;html=1;strokeColor=none;fillColor=none;align=center;verticalAlign=middle;whiteSpace=wrap;rounded=0;" vertex="1" parent="1">
          <mxGeometry x="388" y="255" width="60" height="30" as="geometry" />
        </mxCell>
        <mxCell id="GOim5yvG8NWphUXoWWZ7-20" style="edgeStyle=orthogonalEdgeStyle;rounded=0;orthogonalLoop=1;jettySize=auto;html=1;exitX=0;exitY=0.75;exitDx=0;exitDy=0;entryX=1;entryY=0.75;entryDx=0;entryDy=0;" edge="1" parent="1">
          <mxGeometry relative="1" as="geometry">
            <mxPoint x="520" y="260.5" as="sourcePoint" />
            <mxPoint x="440" y="260.5" as="targetPoint" />
          </mxGeometry>
        </mxCell>
        <mxCell id="GOim5yvG8NWphUXoWWZ7-21" style="edgeStyle=orthogonalEdgeStyle;rounded=0;orthogonalLoop=1;jettySize=auto;html=1;exitX=0;exitY=0.75;exitDx=0;exitDy=0;entryX=1;entryY=0.75;entryDx=0;entryDy=0;" edge="1" parent="1">
          <mxGeometry relative="1" as="geometry">
            <mxPoint x="520" y="240.5" as="sourcePoint" />
            <mxPoint x="440" y="240.5" as="targetPoint" />
          </mxGeometry>
        </mxCell>
        <mxCell id="GOim5yvG8NWphUXoWWZ7-6" value="" style="rounded=0;whiteSpace=wrap;html=1;fillColor=none;" vertex="1" parent="1">
          <mxGeometry x="520" y="130" width="80" height="150" as="geometry" />
        </mxCell>
        <mxCell id="GOim5yvG8NWphUXoWWZ7-7" value="arithm_unit" style="text;html=1;strokeColor=none;fillColor=none;align=center;verticalAlign=middle;whiteSpace=wrap;rounded=0;" vertex="1" parent="1">
          <mxGeometry x="538" y="255" width="60" height="30" as="geometry" />
        </mxCell>
        <mxCell id="GOim5yvG8NWphUXoWWZ7-22" value="" style="endArrow=classic;html=1;rounded=0;" edge="1" parent="1">
          <mxGeometry width="50" height="50" relative="1" as="geometry">
            <mxPoint x="120" y="160" as="sourcePoint" />
            <mxPoint x="200" y="160" as="targetPoint" />
          </mxGeometry>
        </mxCell>
        <mxCell id="GOim5yvG8NWphUXoWWZ7-23" value="" style="endArrow=classic;html=1;rounded=0;" edge="1" parent="1">
          <mxGeometry width="50" height="50" relative="1" as="geometry">
            <mxPoint x="120" y="190" as="sourcePoint" />
            <mxPoint x="200" y="190" as="targetPoint" />
          </mxGeometry>
        </mxCell>
        <mxCell id="GOim5yvG8NWphUXoWWZ7-25" value="" style="endArrow=classic;html=1;rounded=0;" edge="1" parent="1">
          <mxGeometry width="50" height="50" relative="1" as="geometry">
            <mxPoint x="120" y="220" as="sourcePoint" />
            <mxPoint x="200" y="220" as="targetPoint" />
          </mxGeometry>
        </mxCell>
        <mxCell id="GOim5yvG8NWphUXoWWZ7-26" value="" style="endArrow=classic;html=1;rounded=0;" edge="1" parent="1">
          <mxGeometry width="50" height="50" relative="1" as="geometry">
            <mxPoint x="200" y="250" as="sourcePoint" />
            <mxPoint x="120" y="250" as="targetPoint" />
          </mxGeometry>
        </mxCell>
        <mxCell id="GOim5yvG8NWphUXoWWZ7-27" value="CS_b" style="text;html=1;strokeColor=none;fillColor=none;align=center;verticalAlign=middle;whiteSpace=wrap;rounded=0;" vertex="1" parent="1">
          <mxGeometry x="105" y="136" width="60" height="30" as="geometry" />
        </mxCell>
        <mxCell id="GOim5yvG8NWphUXoWWZ7-28" value="SCLK" style="text;html=1;strokeColor=none;fillColor=none;align=center;verticalAlign=middle;whiteSpace=wrap;rounded=0;" vertex="1" parent="1">
          <mxGeometry x="105" y="166" width="60" height="30" as="geometry" />
        </mxCell>
        <mxCell id="GOim5yvG8NWphUXoWWZ7-29" value="MOSI" style="text;html=1;strokeColor=none;fillColor=none;align=center;verticalAlign=middle;whiteSpace=wrap;rounded=0;" vertex="1" parent="1">
          <mxGeometry x="105" y="196" width="60" height="30" as="geometry" />
        </mxCell>
        <mxCell id="GOim5yvG8NWphUXoWWZ7-30" value="MISO" style="text;html=1;strokeColor=none;fillColor=none;align=center;verticalAlign=middle;whiteSpace=wrap;rounded=0;" vertex="1" parent="1">
          <mxGeometry x="105" y="225" width="60" height="30" as="geometry" />
        </mxCell>
        <mxCell id="GOim5yvG8NWphUXoWWZ7-31" value="fr_start" style="text;html=1;strokeColor=none;fillColor=none;align=center;verticalAlign=middle;whiteSpace=wrap;rounded=0;" vertex="1" parent="1">
          <mxGeometry x="290" y="117" width="60" height="30" as="geometry" />
        </mxCell>
        <mxCell id="GOim5yvG8NWphUXoWWZ7-32" value="fr_end" style="text;html=1;strokeColor=none;fillColor=none;align=center;verticalAlign=middle;whiteSpace=wrap;rounded=0;" vertex="1" parent="1">
          <mxGeometry x="290" y="137" width="60" height="30" as="geometry" />
        </mxCell>
        <mxCell id="GOim5yvG8NWphUXoWWZ7-33" value="fr_err" style="text;html=1;strokeColor=none;fillColor=none;align=center;verticalAlign=middle;whiteSpace=wrap;rounded=0;" vertex="1" parent="1">
          <mxGeometry x="290" y="157" width="60" height="30" as="geometry" />
        </mxCell>
        <mxCell id="GOim5yvG8NWphUXoWWZ7-34" value="data_out" style="text;html=1;strokeColor=none;fillColor=none;align=center;verticalAlign=middle;whiteSpace=wrap;rounded=0;" vertex="1" parent="1">
          <mxGeometry x="290" y="178" width="60" height="30" as="geometry" />
        </mxCell>
        <mxCell id="GOim5yvG8NWphUXoWWZ7-35" value="data_in" style="text;html=1;strokeColor=none;fillColor=none;align=center;verticalAlign=middle;whiteSpace=wrap;rounded=0;" vertex="1" parent="1">
          <mxGeometry x="290" y="217" width="60" height="30" as="geometry" />
        </mxCell>
        <mxCell id="GOim5yvG8NWphUXoWWZ7-36" value="load_data" style="text;html=1;strokeColor=none;fillColor=none;align=center;verticalAlign=middle;whiteSpace=wrap;rounded=0;" vertex="1" parent="1">
          <mxGeometry x="290" y="237" width="60" height="30" as="geometry" />
        </mxCell>
        <mxCell id="GOim5yvG8NWphUXoWWZ7-37" value="we_data_fr1" style="text;html=1;strokeColor=none;fillColor=none;align=center;verticalAlign=middle;whiteSpace=wrap;rounded=0;" vertex="1" parent="1">
          <mxGeometry x="448" y="117" width="60" height="30" as="geometry" />
        </mxCell>
        <mxCell id="GOim5yvG8NWphUXoWWZ7-38" value="we_data_fr2" style="text;html=1;strokeColor=none;fillColor=none;align=center;verticalAlign=middle;whiteSpace=wrap;rounded=0;" vertex="1" parent="1">
          <mxGeometry x="448" y="137" width="60" height="30" as="geometry" />
        </mxCell>
        <mxCell id="GOim5yvG8NWphUXoWWZ7-39" value="data_fr_1" style="text;html=1;strokeColor=none;fillColor=none;align=center;verticalAlign=middle;whiteSpace=wrap;rounded=0;" vertex="1" parent="1">
          <mxGeometry x="448" y="157" width="60" height="30" as="geometry" />
        </mxCell>
        <mxCell id="GOim5yvG8NWphUXoWWZ7-40" value="data_fr_2" style="text;html=1;strokeColor=none;fillColor=none;align=center;verticalAlign=middle;whiteSpace=wrap;rounded=0;" vertex="1" parent="1">
          <mxGeometry x="448" y="178" width="60" height="30" as="geometry" />
        </mxCell>
        <mxCell id="GOim5yvG8NWphUXoWWZ7-41" value="add_res" style="text;html=1;strokeColor=none;fillColor=none;align=center;verticalAlign=middle;whiteSpace=wrap;rounded=0;" vertex="1" parent="1">
          <mxGeometry x="448" y="217" width="60" height="30" as="geometry" />
        </mxCell>
        <mxCell id="GOim5yvG8NWphUXoWWZ7-42" value="mul_res" style="text;html=1;strokeColor=none;fillColor=none;align=center;verticalAlign=middle;whiteSpace=wrap;rounded=0;" vertex="1" parent="1">
          <mxGeometry x="448" y="237" width="60" height="30" as="geometry" />
        </mxCell>
        <mxCell id="GOim5yvG8NWphUXoWWZ7-43" value="" style="rounded=0;whiteSpace=wrap;html=1;fillColor=none;" vertex="1" parent="1">
          <mxGeometry x="160" y="117" width="450" height="183" as="geometry" />
        </mxCell>
        <mxCell id="GOim5yvG8NWphUXoWWZ7-44" value="dig_top" style="text;html=1;strokeColor=none;fillColor=none;align=center;verticalAlign=middle;whiteSpace=wrap;rounded=0;" vertex="1" parent="1">
          <mxGeometry x="556" y="276" width="60" height="30" as="geometry" />
        </mxCell>
      </root>
    </mxGraphModel>
  </diagram>
</mxfile>
